<svg width="156" height="156" viewBox="0 0 156 156" fill="none" xmlns="http://www.w3.org/2000/svg">
<circle cx="78" cy="78" r="78" fill="black"/>
<path d="M47.368 87V70.2H53.032V82.608H60.616V87H47.368Z" fill="white"/>
<path d="M68.9485 87.24C67.4605 87.24 66.1405 86.952 64.9885 86.376C63.8525 85.784 62.9565 84.976 62.3005 83.952C61.6445 82.928 61.3165 81.752 61.3165 80.424C61.3165 79.096 61.6445 77.92 62.3005 76.896C62.9565 75.872 63.8525 75.072 64.9885 74.496C66.1405 73.92 67.4605 73.632 68.9485 73.632C70.4365 73.632 71.7565 73.92 72.9085 74.496C74.0605 75.072 74.9565 75.872 75.5965 76.896C76.2525 77.92 76.5805 79.096 76.5805 80.424C76.5805 81.752 76.2525 82.928 75.5965 83.952C74.9565 84.976 74.0605 85.784 72.9085 86.376C71.7565 86.952 70.4365 87.24 68.9485 87.24ZM68.9485 83.016C69.3485 83.016 69.7085 82.92 70.0285 82.728C70.3485 82.536 70.6045 82.248 70.7965 81.864C70.9885 81.464 71.0845 80.984 71.0845 80.424C71.0845 79.848 70.9885 79.376 70.7965 79.008C70.6045 78.624 70.3485 78.336 70.0285 78.144C69.7085 77.952 69.3485 77.856 68.9485 77.856C68.5485 77.856 68.1885 77.952 67.8685 78.144C67.5485 78.336 67.2925 78.624 67.1005 79.008C66.9085 79.376 66.8125 79.848 66.8125 80.424C66.8125 80.984 66.9085 81.464 67.1005 81.864C67.2925 82.248 67.5485 82.536 67.8685 82.728C68.1885 82.92 68.5485 83.016 68.9485 83.016Z" fill="white"/>
<path d="M84.9501 91.896C83.6541 91.896 82.4381 91.76 81.3021 91.488C80.1661 91.216 79.1901 90.808 78.3741 90.264L80.1981 86.568C80.7101 86.968 81.3581 87.28 82.1421 87.504C82.9421 87.744 83.6941 87.864 84.3981 87.864C85.5181 87.864 86.3181 87.624 86.7981 87.144C87.2781 86.68 87.5181 86.008 87.5181 85.128V84.024L87.7581 79.944L87.7821 75.864V73.872H92.9421V84.384C92.9421 86.928 92.2381 88.816 90.8301 90.048C89.4221 91.28 87.4621 91.896 84.9501 91.896ZM83.8941 86.28C82.7901 86.28 81.7581 86.024 80.7981 85.512C79.8381 84.984 79.0621 84.248 78.4701 83.304C77.8781 82.36 77.5821 81.24 77.5821 79.944C77.5821 78.648 77.8781 77.528 78.4701 76.584C79.0621 75.64 79.8381 74.912 80.7981 74.4C81.7581 73.888 82.7901 73.632 83.8941 73.632C85.0301 73.632 85.9581 73.856 86.6781 74.304C87.4141 74.752 87.9581 75.448 88.3101 76.392C88.6621 77.32 88.8381 78.504 88.8381 79.944C88.8381 81.384 88.6621 82.576 88.3101 83.52C87.9581 84.448 87.4141 85.144 86.6781 85.608C85.9581 86.056 85.0301 86.28 83.8941 86.28ZM85.3341 82.056C85.7661 82.056 86.1501 81.968 86.4861 81.792C86.8221 81.616 87.0861 81.368 87.2781 81.048C87.4701 80.728 87.5661 80.36 87.5661 79.944C87.5661 79.512 87.4701 79.144 87.2781 78.84C87.0861 78.52 86.8221 78.28 86.4861 78.12C86.1501 77.944 85.7661 77.856 85.3341 77.856C84.9181 77.856 84.5341 77.944 84.1821 78.12C83.8461 78.28 83.5741 78.52 83.3661 78.84C83.1741 79.144 83.0781 79.512 83.0781 79.944C83.0781 80.36 83.1741 80.728 83.3661 81.048C83.5741 81.368 83.8461 81.616 84.1821 81.792C84.5341 81.968 84.9181 82.056 85.3341 82.056Z" fill="white"/>
<path d="M102.277 87.24C100.789 87.24 99.4686 86.952 98.3166 86.376C97.1806 85.784 96.2846 84.976 95.6286 83.952C94.9726 82.928 94.6446 81.752 94.6446 80.424C94.6446 79.096 94.9726 77.92 95.6286 76.896C96.2846 75.872 97.1806 75.072 98.3166 74.496C99.4686 73.92 100.789 73.632 102.277 73.632C103.765 73.632 105.085 73.92 106.237 74.496C107.389 75.072 108.285 75.872 108.925 76.896C109.581 77.92 109.909 79.096 109.909 80.424C109.909 81.752 109.581 82.928 108.925 83.952C108.285 84.976 107.389 85.784 106.237 86.376C105.085 86.952 103.765 87.24 102.277 87.24ZM102.277 83.016C102.677 83.016 103.037 82.92 103.357 82.728C103.677 82.536 103.933 82.248 104.125 81.864C104.317 81.464 104.413 80.984 104.413 80.424C104.413 79.848 104.317 79.376 104.125 79.008C103.933 78.624 103.677 78.336 103.357 78.144C103.037 77.952 102.677 77.856 102.277 77.856C101.877 77.856 101.517 77.952 101.197 78.144C100.877 78.336 100.621 78.624 100.429 79.008C100.237 79.376 100.141 79.848 100.141 80.424C100.141 80.984 100.237 81.464 100.429 81.864C100.621 82.248 100.877 82.536 101.197 82.728C101.517 82.92 101.877 83.016 102.277 83.016Z" fill="white"/>
</svg>
