<svg class="mute-icon" width="24" height="24" viewBox="0 0 24 24" fill="none" xmlns="http://www.w3.org/2000/svg">
<path d="M7.50949 15.7536C7.33387 15.6611 7.19109 15.5135 7.10161 15.332C6.99988 15.1256 6.99988 14.8555 6.99988 14.3152V9.68476C6.99988 9.14449 6.99988 8.87436 7.10161 8.668C7.19109 8.48648 7.33387 8.33891 7.50949 8.24642C7.70915 8.14128 7.97051 8.14128 8.49323 8.14128H10.1147C10.343 8.14128 10.4571 8.14128 10.5645 8.11462C10.6598 8.09099 10.7508 8.05201 10.8343 7.99912C10.9285 7.93946 11.0092 7.85604 11.1707 7.6892L14.1253 4.63532C14.5252 4.22207 14.7251 4.01545 14.8967 4.00149C15.0456 3.98938 15.1912 4.05168 15.2882 4.16909C15.4 4.3044 15.4 4.59661 15.4 5.18103V6.5L15.3733 8.11462M18.8528 4.63532L4.48804 19" stroke="currentColor" stroke-width="2" stroke-linecap="round" stroke-linejoin="round"/>
<path d="M11 16.6565L13.7082 19.3647C14.1134 19.7779 14.316 19.9845 14.49 19.9985C14.6409 20.0106 14.7884 19.9483 14.8867 19.8309C15.0001 19.6956 15.0001 19.4034 15.0001 18.819V13" stroke="currentColor" stroke-width="2" stroke-linecap="round" stroke-linejoin="round"/>
</svg>
