<?xml version="1.0" standalone="no"?>
<!DOCTYPE svg PUBLIC "-//W3C//DTD SVG 20010904//EN"
 "http://www.w3.org/TR/2001/REC-SVG-20010904/DTD/svg10.dtd">
<svg version="1.0" xmlns="http://www.w3.org/2000/svg"
 width="700.000000pt" height="700.000000pt" viewBox="0 0 700.000000 700.000000"
 preserveAspectRatio="xMidYMid meet">
<metadata>
Created by potrace 1.14, written by Peter Selinger 2001-2017
</metadata>
<g transform="translate(0.000000,700.000000) scale(0.100000,-0.100000)"
fill="#000000" stroke="none">
<path d="M4970 6157 c-3 -3 -116 -38 -250 -77 -135 -39 -297 -89 -360 -112
-171 -59 -533 -252 -861 -458 -126 -79 -300 -166 -398 -199 -130 -44 -371
-101 -576 -136 -115 -20 -241 -42 -280 -51 -38 -8 -79 -16 -90 -18 -11 -3 -60
-14 -110 -26 -49 -12 -101 -24 -115 -26 -283 -53 -615 -180 -769 -295 -167
-124 -176 -132 -168 -152 9 -25 47 -21 98 11 24 15 76 41 114 56 74 31 114 55
155 92 22 20 147 61 240 78 14 2 106 22 205 44 427 95 540 124 560 142 28 26
68 40 134 46 31 3 83 12 116 19 33 7 85 16 115 20 30 4 58 9 62 12 4 2 59 4
120 5 124 1 205 -16 251 -53 45 -34 62 -23 61 40 -2 53 -1 54 60 114 55 54 92
76 391 227 340 171 437 222 611 320 56 31 140 74 186 94 111 47 347 128 361
123 6 -2 -24 -22 -66 -45 -42 -24 -77 -49 -77 -57 0 -22 37 -28 67 -11 55 31
201 95 254 111 73 24 210 28 290 9 77 -18 125 -53 150 -108 22 -51 27 -56 45
-49 21 8 17 32 -16 92 -17 30 -28 56 -26 58 9 10 126 -161 140 -205 22 -65 26
-129 11 -178 -19 -64 -152 -249 -226 -317 -134 -120 -226 -179 -449 -287 -100
-48 -162 -83 -313 -174 -120 -72 -533 -278 -692 -346 -142 -60 -207 -89 -228
-101 -57 -31 -191 -42 -250 -20 -33 13 -63 4 -80 -23 -8 -12 -84 -74 -168
-138 -85 -64 -170 -129 -189 -146 -130 -112 -153 -125 -290 -167 -64 -20 -75
-27 -106 -75 -39 -60 -186 -206 -244 -243 -84 -53 -182 -83 -443 -136 -165
-33 -244 -54 -255 -66 -16 -16 -12 -17 67 -11 47 4 83 4 80 2 -9 -10 -138 -25
-264 -31 -71 -4 -161 -9 -200 -11 -97 -5 -143 3 -150 27 -8 24 67 133 121 175
111 86 164 140 164 167 0 35 -51 16 -207 -76 -180 -107 -218 -122 -277 -112
-64 10 -80 8 -99 -16 -14 -17 -15 -24 -5 -36 17 -21 52 -33 104 -35 25 -1 47
-5 50 -10 3 -5 7 -30 8 -56 2 -26 9 -57 16 -68 41 -65 255 -147 480 -185 97
-16 149 -19 234 -15 221 12 282 31 488 147 169 94 280 173 436 311 75 66 108
89 122 85 11 -3 57 8 102 25 46 16 110 39 143 51 64 22 298 135 343 165 197
134 253 165 353 196 46 14 173 61 282 104 108 43 197 75 197 70 0 -5 -18 -38
-40 -74 -22 -36 -40 -68 -40 -70 0 -3 -4 -10 -10 -17 -5 -7 -31 -43 -56 -82
-38 -57 -100 -140 -173 -231 -29 -36 -72 -127 -85 -179 -9 -34 -18 -126 -20
-210 -5 -139 -10 -198 -21 -251 -17 -80 -17 -94 4 -94 39 0 77 50 109 145 26
79 52 183 66 268 3 15 7 35 10 45 2 9 7 44 11 76 9 84 42 164 149 365 141 264
158 300 151 321 -5 17 11 28 111 75 64 30 166 73 228 96 61 22 125 48 141 56
50 27 135 100 238 207 59 61 93 90 86 74 -6 -15 -9 -34 -5 -43 6 -15 9 -15 41
4 86 50 278 204 365 291 87 87 124 136 206 275 135 227 135 426 1 573 -24 26
-55 66 -70 89 -36 57 -69 86 -162 144 -107 66 -142 76 -208 59 -53 -13 -93
-15 -137 -5 -39 9 -174 18 -180 12z m686 -612 c-4 -25 -11 -45 -17 -45 -12 0
-11 16 2 63 14 51 23 40 15 -18z m-56 -155 c-16 -55 -65 -133 -118 -189 -29
-31 -67 -72 -84 -91 -66 -74 -212 -167 -249 -157 -10 3 -27 -4 -39 -15 -12
-12 -79 -42 -149 -68 -69 -26 -150 -59 -179 -74 -97 -49 -306 -178 -475 -292
-92 -63 -170 -114 -173 -114 -2 0 -21 -10 -42 -23 -20 -12 -66 -36 -102 -52
-36 -17 -97 -49 -137 -72 -40 -23 -116 -61 -168 -83 -63 -27 -131 -67 -196
-115 -67 -50 -154 -101 -264 -155 -91 -44 -167 -80 -171 -80 -4 0 74 79 172
175 99 96 183 175 188 175 5 0 -21 -31 -57 -69 -66 -68 -85 -111 -50 -111 31
0 148 76 221 144 35 33 40 60 17 93 -16 22 -15 22 177 83 314 99 430 147 530
218 282 198 308 212 673 370 277 119 411 197 510 298 66 67 126 152 145 206
16 43 33 42 20 -2z m-157 -116 c11 -12 -13 -43 -45 -60 -18 -9 -61 -39 -96
-66 -123 -94 -68 -25 68 86 58 47 63 50 73 40z m-683 -595 c0 -15 -59 -70 -96
-89 -39 -20 -58 -39 -78 -77 -16 -31 -21 -34 -111 -49 -22 -4 -73 -22 -114
-41 -40 -19 -78 -32 -83 -31 -15 5 252 176 422 271 52 29 60 31 60 16z m-1641
-650 c-65 -70 -125 -122 -200 -174 -60 -41 -117 -82 -127 -92 -11 -10 -94 -89
-185 -176 -197 -188 -182 -176 -332 -264 -138 -81 -167 -94 -256 -116 -147
-37 -402 -42 -555 -13 -12 3 -39 7 -60 10 -119 19 -164 31 -212 59 -28 17 -52
37 -52 44 0 13 24 8 47 -9 19 -15 183 -45 263 -48 163 -7 363 0 430 13 8 2 29
6 45 10 43 9 81 16 155 28 36 6 92 25 125 43 101 53 294 204 425 333 102 100
139 130 200 160 122 59 182 105 294 221 105 109 101 86 -5 -29z"/>
<path d="M2420 3473 c-14 -9 -33 -26 -43 -37 -29 -33 0 -32 41 1 55 44 56 73
2 36z"/>
<path d="M5068 5964 c-26 -8 -50 -19 -53 -24 -10 -16 35 -27 76 -20 95 18 177
-10 244 -81 62 -66 99 -150 91 -206 -14 -106 -100 -213 -251 -315 -90 -60
-124 -98 -72 -82 39 12 140 65 197 104 152 104 240 268 205 381 -11 35 -88
150 -121 181 -60 55 -103 72 -189 74 -44 1 -101 -5 -127 -12z"/>
<path d="M4999 5851 c-23 -19 -24 -20 -5 -34 23 -17 65 -9 80 16 8 13 7 20 -4
27 -23 15 -46 12 -71 -9z"/>
<path d="M4885 5820 c-16 -17 -16 -20 -2 -26 20 -7 57 13 57 31 0 22 -34 18
-55 -5z"/>
<path d="M4485 5801 c-27 -10 -89 -37 -138 -59 -97 -46 -110 -62 -93 -123 8
-31 5 -52 -17 -126 -15 -48 -27 -95 -27 -104 0 -9 -7 -22 -15 -29 -21 -17 -19
-40 3 -40 27 0 45 19 87 90 93 158 214 290 265 290 32 0 70 26 70 48 0 23 -47
72 -68 71 -9 0 -39 -9 -67 -18z"/>
<path d="M5155 5810 c-9 -15 -1 -24 49 -48 69 -35 94 -70 89 -126 -4 -40 -2
-46 15 -46 30 0 48 52 32 91 -18 43 -75 96 -128 119 -52 23 -49 23 -57 10z"/>
<path d="M4826 5647 c-20 -20 -23 -31 -19 -68 8 -69 30 -75 86 -24 44 41 49
75 12 99 -33 22 -52 20 -79 -7z"/>
<path d="M4136 5587 c-20 -15 -6 -40 20 -35 23 4 30 33 10 41 -8 3 -21 0 -30
-6z"/>
<path d="M4496 5471 c-15 -17 -13 -51 3 -51 8 0 51 38 51 45 0 2 -8 9 -19 14
-14 8 -22 6 -35 -8z"/>
<path d="M3732 5366 c-66 -48 -90 -71 -98 -97 -7 -19 -17 -35 -23 -35 -6 -1
-17 -2 -25 -3 -8 0 -42 -41 -75 -91 -54 -79 -66 -90 -91 -90 -19 0 -33 -7 -40
-21 -13 -24 -16 -20 34 -54 21 -14 44 -24 51 -21 7 2 49 55 94 118 85 118 116
155 194 225 39 36 53 43 85 41 21 0 44 2 50 6 17 10 15 51 -3 66 -34 28 -64
20 -153 -44z"/>
<path d="M4662 5373 c-42 -47 -29 -67 26 -38 27 15 37 26 37 45 0 37 -26 34
-63 -7z"/>
<path d="M4003 5354 c-41 -24 -54 -46 -34 -59 16 -9 111 48 111 68 0 24 -28
21 -77 -9z"/>
<path d="M4975 5348 c-36 -20 -44 -42 -20 -52 19 -7 62 12 69 31 12 31 -13 42
-49 21z"/>
<path d="M3368 5229 c-47 -31 -62 -62 -34 -72 18 -7 112 76 102 91 -10 17 -15
16 -68 -19z"/>
<path d="M4325 5184 c-53 -27 -180 -121 -335 -247 -52 -42 -99 -81 -105 -85
-5 -4 -48 -37 -95 -73 -206 -157 -239 -178 -273 -173 -28 5 -35 1 -54 -30 -27
-42 -80 -84 -122 -96 -27 -8 -36 -4 -78 31 -72 59 -149 92 -198 85 -71 -12
-98 -14 -222 -20 -67 -3 -128 -9 -137 -12 -25 -10 -27 -34 -3 -58 19 -19 34
-22 107 -24 178 -4 286 -19 341 -47 18 -10 52 -14 97 -13 37 1 72 -1 78 -5 12
-7 157 73 236 129 26 18 71 45 100 60 57 29 252 175 488 365 80 64 170 131
200 149 69 42 90 60 90 77 0 22 -60 15 -115 -13z"/>
<path d="M4559 5101 c-275 -142 -300 -159 -286 -195 6 -15 28 -6 154 60 82 43
186 98 233 122 47 24 91 52 98 63 11 18 9 19 -26 19 -28 0 -75 -19 -173 -69z"/>
<path d="M3635 5118 c-26 -20 -32 -42 -15 -53 13 -8 66 21 74 40 8 23 9 22
-14 28 -11 3 -30 -3 -45 -15z"/>
<path d="M3985 5099 c-35 -28 -18 -48 19 -24 14 10 26 21 26 26 0 18 -19 17
-45 -2z"/>
<path d="M4888 5104 c-30 -16 -37 -39 -14 -47 18 -7 76 29 76 48 0 19 -27 19
-62 -1z"/>
<path d="M3797 5081 c-16 -10 -42 -41 -57 -68 -27 -47 -79 -94 -227 -206 -74
-56 -136 -129 -131 -154 6 -32 37 -26 71 13 53 62 79 84 123 103 75 33 270
213 294 271 23 54 -19 77 -73 41z"/>
<path d="M2835 5049 c-66 -27 -74 -36 -42 -48 37 -14 132 18 132 45 0 26 -30
27 -90 3z"/>
<path d="M3183 5033 c-19 -7 -16 -23 15 -89 56 -118 58 -127 38 -231 -5 -26
17 -53 43 -53 10 0 30 11 45 25 15 14 31 25 37 25 5 0 9 7 9 16 0 11 -6 13
-19 9 -17 -5 -22 1 -31 37 -34 126 -88 251 -112 260 -7 3 -19 3 -25 1z"/>
<path d="M2530 4992 c-37 -19 -49 -39 -28 -47 20 -8 67 12 75 31 10 27 -11 35
-47 16z"/>
<path d="M2995 4969 c-10 -30 15 -54 38 -37 16 12 16 15 2 36 -20 28 -32 28
-40 1z"/>
<path d="M4469 4933 c-129 -82 -160 -114 -98 -105 41 6 209 93 223 115 8 13 8
20 -4 27 -26 17 -43 11 -121 -37z"/>
<path d="M2845 4877 c-22 -17 -15 -29 37 -68 46 -33 63 -36 72 -13 4 11 -7 29
-33 55 -43 43 -49 45 -76 26z"/>
<path d="M4155 4858 c-50 -26 -49 -24 -42 -42 5 -14 12 -14 54 -1 47 14 77 40
67 56 -8 14 -36 10 -79 -13z"/>
<path d="M2049 4836 c-2 -2 -20 -7 -40 -10 -78 -12 -110 -36 -71 -53 36 -17
138 1 152 27 13 24 -22 54 -41 36z"/>
<path d="M2367 4763 c-15 -14 -6 -44 15 -52 24 -9 74 4 85 22 15 24 -78 52
-100 30z"/>
<path d="M3852 4608 c-36 -26 -49 -55 -33 -71 8 -8 23 -5 56 11 53 26 66 49
40 68 -24 18 -25 18 -63 -8z"/>
<path d="M1885 4533 c-101 -15 -173 -36 -328 -99 -109 -44 -237 -112 -237
-126 0 -25 55 -11 291 76 122 44 232 65 384 72 99 5 123 10 140 25 19 19 19
19 -3 41 -27 27 -111 31 -247 11z"/>
<path d="M1390 4511 c-27 -7 -38 -37 -21 -54 12 -12 81 20 81 39 0 9 -26 27
-33 23 -1 -1 -13 -4 -27 -8z"/>
<path d="M3513 4468 c-37 -10 -45 -19 -34 -36 9 -16 137 -17 204 -4 4 1 7 9 7
17 0 11 -12 14 -47 14 -27 -1 -59 3 -73 8 -15 6 -38 6 -57 1z"/>
<path d="M2984 4364 c-27 -23 -28 -25 -11 -38 10 -8 26 -13 35 -11 9 2 20 4
24 4 4 1 12 10 17 20 9 15 6 22 -13 34 -21 14 -25 14 -52 -9z"/>
<path d="M2187 4331 c-59 -20 -79 -47 -45 -60 22 -8 45 -3 110 21 31 11 45 38
26 50 -18 11 -36 9 -91 -11z"/>
<path d="M4404 4238 c-54 -41 -83 -84 -158 -229 -76 -148 -110 -234 -127 -323
-11 -59 -12 -66 -34 -166 -9 -41 -19 -86 -21 -100 -3 -14 -16 -71 -29 -127
-32 -130 -32 -145 -2 -141 34 5 72 95 142 343 69 242 104 327 194 468 56 88
82 139 111 214 10 28 10 37 -4 58 -20 31 -35 31 -72 3z"/>
<path d="M1213 4213 c-58 -43 -79 -71 -65 -85 6 -6 27 -1 58 15 76 38 98 59
90 85 -10 30 -24 28 -83 -15z"/>
<path d="M548 4193 c-14 -16 -35 -46 -46 -69 -19 -37 -45 -148 -43 -183 1 -9
2 -61 4 -116 2 -90 5 -107 35 -169 42 -88 88 -145 152 -186 51 -33 80 -34 80
-4 0 9 -23 54 -50 100 -118 195 -137 275 -96 411 13 43 29 111 36 151 12 63
11 75 -1 83 -24 15 -44 10 -71 -18z"/>
<path d="M4080 4073 c-19 -20 -83 -93 -143 -162 -104 -121 -181 -246 -202
-326 -5 -16 -9 -131 -11 -255 -1 -124 -4 -234 -7 -246 -3 -11 -2 -27 3 -34 16
-25 37 -1 53 62 30 119 34 150 23 218 -27 166 -25 190 21 290 36 75 121 205
178 272 67 77 151 195 148 206 -8 21 -27 13 -63 -25z"/>
<path d="M3709 3946 c-161 -118 -247 -384 -199 -616 7 -30 14 -73 17 -95 6
-49 25 -91 38 -87 6 2 9 10 7 17 -11 54 -17 160 -17 280 0 126 2 145 24 190
28 59 110 166 146 189 14 9 43 39 65 67 33 41 38 54 30 70 -16 29 -59 23 -111
-15z"/>
<path d="M2142 3943 c-32 -15 -39 -27 -24 -37 10 -6 69 40 62 47 -3 3 -20 -1
-38 -10z"/>
<path d="M1085 3860 c-53 -21 -73 -85 -26 -85 16 0 29 11 45 37 23 41 15 61
-19 48z"/>
<path d="M3777 3801 c-46 -51 -102 -167 -123 -256 -15 -63 -21 -264 -11 -377
4 -42 22 -55 38 -27 13 24 16 67 23 294 4 140 13 176 86 328 18 37 31 70 28
73 -3 2 -21 -13 -41 -35z"/>
<path d="M3436 3809 c-14 -11 -31 -30 -37 -41 -19 -36 -37 -180 -33 -263 8
-162 80 -385 76 -235 -1 27 -13 151 -17 170 -14 67 -13 134 6 210 10 45 24 91
30 102 15 29 22 78 11 78 -5 0 -21 -9 -36 -21z"/>
<path d="M3238 3573 c-15 -36 -15 -60 -3 -168 4 -27 8 -72 11 -100 10 -113 17
-146 54 -250 42 -119 50 -155 56 -262 9 -146 12 -149 67 -60 26 41 47 83 47
94 0 11 -14 45 -30 75 -67 123 -110 288 -112 422 0 52 -8 136 -17 188 -14 81
-19 93 -37 96 -17 2 -25 -5 -36 -35z"/>
<path d="M1745 3558 c-39 -46 -42 -71 -8 -76 16 -2 28 7 47 41 49 82 23 106
-39 35z"/>
<path d="M3082 3558 c-30 -15 -37 -49 -23 -112 6 -28 13 -60 15 -71 30 -147
42 -190 67 -245 32 -69 74 -130 90 -130 16 0 10 25 -26 99 -57 117 -73 208
-65 378 2 40 -2 68 -10 78 -14 17 -17 17 -48 3z"/>
<path d="M2846 3408 c-9 -12 -16 -30 -16 -39 0 -41 67 -160 165 -294 47 -64
86 -128 174 -288 51 -93 82 -228 87 -392 5 -134 16 -184 41 -192 8 -3 13 42
17 159 3 90 7 188 8 219 3 66 -41 209 -81 269 -14 21 -56 69 -92 108 -115 120
-174 218 -208 347 -12 44 -26 90 -31 103 -12 28 -44 28 -64 0z"/>
<path d="M2626 3298 c-27 -41 -26 -73 4 -135 38 -77 69 -110 165 -172 73 -48
80 -51 92 -35 15 20 15 19 -120 227 -94 144 -112 159 -141 115z"/>
<path d="M5180 3256 c-30 -7 -134 -42 -231 -79 -241 -90 -547 -177 -789 -223
-178 -34 -431 -143 -514 -222 -37 -35 -176 -236 -176 -255 0 -4 -12 -33 -26
-64 -30 -63 -29 -94 6 -186 23 -62 70 -117 158 -186 52 -40 82 -51 82 -31 0 5
-14 20 -31 32 -68 51 -181 236 -173 286 1 6 2 25 3 41 1 18 28 70 74 137 80
118 127 171 190 211 68 43 205 93 256 93 25 0 78 9 116 21 39 11 93 22 120 25
28 3 124 30 215 61 285 96 594 191 607 186 6 -3 13 -14 15 -26 2 -16 14 -23
53 -32 57 -13 75 -21 75 -37 0 -22 88 -94 143 -118 54 -23 57 -27 51 -53 -3
-16 -1 -34 6 -42 13 -15 60 -21 60 -7 0 4 4 13 9 20 6 11 21 7 69 -17 56 -28
61 -34 64 -67 3 -34 10 -41 138 -130 74 -51 144 -93 154 -93 10 -1 25 7 32 17
12 16 14 16 41 0 34 -20 52 -62 37 -85 -20 -32 -41 -38 -90 -25 -44 12 -49 11
-70 -9 -20 -19 -31 -21 -86 -16 -35 3 -81 12 -102 21 -47 20 -66 20 -66 2 0
-18 71 -52 125 -61 22 -3 73 -7 113 -9 40 -2 76 -6 79 -9 12 -13 -9 -39 -42
-53 -46 -19 -44 -30 6 -45 26 -8 44 -21 49 -35 5 -12 14 -25 19 -29 19 -11 12
-26 -44 -84 -30 -32 -55 -65 -55 -73 0 -8 -24 -31 -53 -51 l-53 -37 -66 19
c-85 24 -237 80 -263 95 -11 7 -81 36 -157 65 -75 28 -170 69 -212 91 -62 31
-81 37 -104 30 -15 -4 -106 -36 -202 -70 -242 -85 -316 -101 -527 -115 -40 -2
-123 -16 -185 -31 -62 -14 -123 -28 -135 -31 -33 -8 -47 -28 -29 -42 11 -9 29
-10 73 -2 32 6 76 13 98 17 22 3 47 8 55 9 33 6 162 16 270 20 117 4 122 4
345 -46 76 -17 138 -21 400 -25 342 -5 357 -7 499 -73 186 -86 247 -103 386
-106 191 -4 380 54 514 159 116 91 148 143 125 203 -13 35 -34 38 -74 8 -43
-34 -47 -17 -11 48 34 61 39 115 14 163 -20 40 -81 92 -310 264 -69 52 -135
109 -148 126 -46 69 -141 149 -295 251 -88 59 -207 142 -265 186 -162 123
-240 150 -360 123z m172 -184 c31 -13 50 -37 22 -29 -11 3 -47 13 -82 23 -35
9 -58 20 -52 24 13 8 70 -2 112 -18z m427 -314 c56 -33 159 -119 177 -146 21
-32 15 -28 -125 80 -107 83 -132 114 -52 66z m361 -192 c19 -17 78 -68 130
-113 110 -94 199 -183 184 -183 -6 0 -18 8 -27 18 -9 9 -60 40 -114 67 -91 46
-102 56 -158 129 -33 43 -72 92 -87 110 -15 17 -28 37 -28 44 0 14 25 -4 100
-72z m-85 -281 c-31 -25 -78 -32 -104 -16 -11 7 -4 12 25 19 105 27 116 27 79
-3z m111 -20 c4 -9 -3 -23 -16 -33 -25 -21 -24 -24 39 -65 19 -12 35 -30 37
-39 3 -22 -23 -58 -43 -58 -21 0 -53 -29 -53 -47 0 -7 -5 -13 -10 -13 -7 0 -7
6 0 19 14 27 13 144 -2 159 -7 7 -20 12 -29 12 -26 0 -35 22 -15 34 10 6 27
19 38 29 26 21 47 22 54 2z m-136 -121 c0 -15 10 -34 22 -44 22 -18 22 -19 6
-54 -30 -61 -85 -114 -144 -136 -74 -27 -95 -26 -58 3 64 49 134 130 139 161
8 48 13 80 14 89 2 20 21 3 21 -19z m375 -115 c-4 -20 -13 -45 -21 -56 -13
-16 -14 -14 -7 27 4 25 8 65 8 89 l-1 44 14 -33 c8 -20 11 -48 7 -71z m-1350
6 c88 -7 150 -21 184 -41 25 -15 25 -15 -19 -9 -25 4 -56 8 -70 10 -14 2 -99
7 -190 10 -91 4 -176 8 -190 9 -14 2 -43 4 -64 5 -64 2 -29 18 54 26 41 4 76
8 77 9 2 1 35 -1 75 -6 40 -4 104 -10 143 -13z m1242 -87 c-13 -31 -39 -56
-87 -83 -13 -8 -13 -7 0 11 45 58 94 114 97 110 2 -2 -2 -19 -10 -38z m-122
-31 c-23 -35 -89 -68 -152 -74 -65 -7 -68 4 -12 48 46 37 75 42 71 12 -4 -31
14 -29 63 7 49 36 49 36 30 7z"/>
<path d="M2445 3111 c-12 -38 16 -71 142 -169 143 -111 219 -188 265 -268 28
-51 48 -68 48 -43 0 6 -23 49 -51 95 -58 94 -132 174 -199 212 -78 45 -110 73
-142 128 -36 59 -54 72 -63 45z"/>
<path d="M2255 3040 c-4 -6 -2 -17 4 -24 13 -16 150 -80 157 -73 7 6 -54 66
-91 89 -34 20 -61 23 -70 8z"/>
<path d="M2016 3002 c-17 -28 4 -45 159 -127 124 -66 263 -147 373 -218 51
-33 95 -58 97 -56 4 5 -31 46 -126 146 -43 46 -86 77 -185 131 -207 114 -301
151 -318 124z"/>
<path d="M3670 2984 c-6 -15 -8 -29 -5 -33 10 -10 40 16 40 34 0 30 -24 29
-35 -1z"/>
<path d="M5029 2994 c-41 -14 -78 -48 -65 -61 20 -20 146 2 174 31 11 11 11
16 -3 30 -20 20 -46 20 -106 0z"/>
<path d="M4815 2896 c-13 -9 -20 -30 -23 -69 -4 -47 0 -63 21 -99 14 -24 35
-52 47 -63 21 -19 23 -19 35 -2 13 18 7 74 -14 129 -5 15 -8 37 -6 49 5 23
-18 69 -33 69 -5 0 -16 -6 -27 -14z"/>
<path d="M2930 2781 c0 -39 64 -151 86 -151 27 0 11 59 -33 123 -23 34 -53 50
-53 28z"/>
<path d="M5120 2741 c-7 -13 -7 -28 0 -46 18 -47 12 -72 -18 -84 -38 -16 -56
-46 -42 -71 6 -11 16 -20 23 -21 7 0 21 -2 32 -5 31 -6 120 -7 141 -1 11 3 41
8 69 12 105 13 116 89 16 110 -63 13 -100 35 -138 80 -40 48 -66 56 -83 26z"/>
<path d="M4415 2710 c-4 -6 -3 -16 3 -22 6 -6 12 -6 17 2 4 6 3 16 -3 22 -6 6
-12 6 -17 -2z"/>
<path d="M4482 2578 c-28 -28 -1 -108 37 -108 21 0 36 15 46 48 5 18 1 30 -16
48 -25 26 -48 31 -67 12z"/>
<path d="M5596 2571 c-17 -19 -16 -21 25 -50 45 -33 49 -34 73 -25 32 12 20
29 -55 77 -24 16 -27 16 -43 -2z"/>
<path d="M5760 2455 c-21 -25 0 -51 36 -47 31 4 45 18 41 42 -3 22 -60 25 -77
5z"/>
<path d="M4910 2389 c-41 -3 -165 -5 -275 -3 -185 3 -204 2 -233 -16 -39 -24
-40 -34 -6 -56 22 -15 67 -17 347 -20 176 -2 348 -6 382 -9 33 -3 96 -7 140
-10 44 -3 89 -7 100 -10 11 -2 52 -7 90 -10 39 -4 86 -10 106 -14 41 -9 124
-7 158 4 22 7 22 8 4 20 -10 7 -29 16 -43 20 -14 3 -73 22 -132 40 -172 54
-248 67 -413 69 -82 1 -184 -2 -225 -5z"/>
<path d="M5133 2222 c-27 -17 15 -41 152 -87 77 -25 163 -57 192 -71 58 -28
58 -28 199 -53 80 -14 105 -15 118 -6 24 18 3 31 -69 44 -83 15 -140 34 -217
70 -53 25 -332 111 -357 111 -3 0 -12 -4 -18 -8z"/>
<path d="M5857 2167 c-56 -29 -111 -31 -209 -9 -96 22 -113 19 -95 -18 19 -37
107 -67 190 -64 57 2 77 7 122 35 80 48 72 98 -8 56z"/>
<path d="M4296 2171 c-4 -6 1 -22 10 -36 16 -24 18 -25 33 -10 12 12 13 19 5
33 -13 20 -40 27 -48 13z"/>
<path d="M3052 2148 c-6 -6 11 -70 51 -191 33 -100 80 -247 105 -327 51 -164
59 -181 79 -154 20 27 16 71 -17 197 -46 181 -61 221 -159 429 -23 49 -42 63
-59 46z"/>
<path d="M3383 1974 c-9 -25 10 -48 45 -55 38 -8 42 6 11 45 -23 30 -47 34
-56 10z"/>
<path d="M3502 1894 c4 -21 44 -48 52 -36 8 13 -22 52 -40 52 -9 0 -14 -7 -12
-16z"/>
<path d="M4635 1810 c-8 -13 -3 -187 6 -201 22 -36 80 130 63 179 -10 28 -56
43 -69 22z"/>
<path d="M3486 1795 c-3 -9 1 -18 10 -22 19 -7 28 2 21 22 -8 19 -23 19 -31 0z"/>
<path d="M5062 1783 c-34 -17 -73 -70 -90 -123 -6 -19 -13 -70 -16 -112 -3
-44 -14 -99 -25 -125 -11 -27 -25 -75 -30 -108 -6 -33 -15 -77 -20 -98 -8 -33
-6 -41 12 -57 26 -25 29 -25 58 -2 20 17 21 21 8 40 -11 15 -14 41 -12 89 4
90 9 110 33 118 12 4 22 19 27 43 22 114 40 161 109 292 27 52 3 71 -54 43z"/>
<path d="M4509 1783 c0 -5 -2 -42 -4 -83 -3 -84 -10 -129 -31 -211 -8 -31 -14
-66 -14 -77 0 -37 20 -34 36 5 8 21 23 56 34 78 10 22 22 56 26 75 7 39 6 175
-2 203 -5 16 -43 25 -45 10z"/>
<path d="M5185 1726 c-112 -118 -162 -270 -164 -494 -1 -129 -4 -155 -28 -229
-28 -86 -25 -116 10 -91 22 17 77 242 110 454 14 88 34 180 43 204 10 24 44
75 76 113 32 38 56 73 53 77 -3 4 -15 10 -27 13 -18 5 -33 -4 -73 -47z"/>
<path d="M3685 1737 c-8 -30 -1 -77 27 -182 34 -130 58 -136 58 -15 0 36 5 80
10 98 6 17 14 46 19 62 11 35 1 44 -66 55 -39 6 -43 5 -48 -18z"/>
<path d="M3580 1719 c-14 -26 -7 -67 22 -125 23 -46 46 -63 60 -42 11 18 10
24 -20 107 -29 80 -44 95 -62 60z"/>
<path d="M4871 1721 c-26 -26 -42 -64 -69 -167 -23 -83 -23 -78 4 -209 14 -66
46 -67 63 -2 6 23 13 84 15 136 3 51 10 127 17 168 14 86 5 109 -30 74z"/>
<path d="M4736 1698 c-29 -45 -76 -178 -82 -230 -5 -42 -2 -57 10 -67 13 -11
17 -9 26 14 5 14 10 32 10 39 0 7 13 39 29 72 31 62 51 133 46 162 -2 9 -4 20
-4 25 -2 15 -21 6 -35 -15z"/>
<path d="M3434 1686 c-8 -21 3 -78 25 -133 10 -26 29 -72 40 -101 12 -30 26
-76 32 -103 8 -37 15 -49 29 -49 25 0 31 12 34 67 4 54 -13 101 -80 236 -46
92 -68 115 -80 83z"/>
<path d="M4557 1433 c-10 -9 -8 -41 2 -47 17 -11 30 18 17 36 -7 10 -16 15
-19 11z"/>
<path d="M3686 1402 c-30 -49 -4 -152 87 -332 60 -120 87 -155 87 -111 0 30
-47 164 -87 250 -19 41 -39 98 -45 128 -10 51 -31 83 -42 65z"/>
<path d="M4692 1341 c-16 -9 -63 -129 -64 -160 0 -14 9 -33 23 -44 22 -18 23
-18 35 5 13 26 36 131 36 166 1 29 -13 44 -30 33z"/>
<path d="M4352 1312 c-30 -76 -113 -373 -107 -382 13 -21 62 17 83 64 15 34
52 245 52 298 0 46 -14 56 -28 20z"/>
<path d="M3627 1234 c-23 -24 74 -244 108 -244 29 0 22 34 -27 127 -53 104
-70 128 -81 117z"/>
<path d="M3334 1186 c-7 -19 24 -78 39 -73 19 6 20 47 1 68 -20 23 -33 24 -40
5z"/>
<path d="M4733 1143 c-34 -92 -64 -216 -54 -226 7 -7 16 -5 29 7 30 26 83 150
85 198 2 39 0 43 -24 46 -21 2 -28 -3 -36 -25z"/>
<path d="M4858 1089 c-27 -15 -65 -88 -77 -147 -13 -65 -14 -59 3 -65 17 -7
70 39 109 93 24 34 25 36 9 83 -16 50 -18 52 -44 36z"/>
</g>
</svg>
