<svg width="1118" height="783" viewBox="0 0 1118 783" fill="none" xmlns="http://www.w3.org/2000/svg">
<rect width="1118" height="783" fill="#EFEFEF"/>
<path d="M526.238 414.93H512.119L559.175 368.029L578 386.789V354H553.349L498 409.158V429H526.238V414.93Z" fill="url(#paint0_radial_186_2348)"/>
<path d="M592.023 415.413C592.023 431.162 579.336 443.929 563.686 443.929H498V458H563.686C587.058 458 606 438.932 606 415.42V354H591.948L592.023 415.413Z" fill="url(#paint1_radial_186_2348)"/>
<path d="M540 406.723V429H563.756C571.626 429 578 422.704 578 414.946V406.73L558.983 388L540 406.73V406.723ZM564.802 409.225C564.802 412.389 562.204 414.953 558.997 414.953C555.789 414.953 553.191 412.389 553.191 409.225C553.191 406.06 555.789 403.496 558.997 403.496C562.204 403.496 564.802 406.06 564.802 409.225Z" fill="url(#paint2_radial_186_2348)"/>
<defs>
<radialGradient id="paint0_radial_186_2348" cx="0" cy="0" r="1" gradientUnits="userSpaceOnUse" gradientTransform="translate(782.761 393.67) scale(280.584 279.617)">
<stop stop-color="#BF1E0C"/>
<stop offset="1" stop-color="#350100"/>
</radialGradient>
<radialGradient id="paint1_radial_186_2348" cx="0" cy="0" r="1" gradientUnits="userSpaceOnUse" gradientTransform="translate(782.244 393.985) scale(280.074 281.835)">
<stop stop-color="#BF1E0C"/>
<stop offset="1" stop-color="#350100"/>
</radialGradient>
<radialGradient id="paint2_radial_186_2348" cx="0" cy="0" r="1" gradientUnits="userSpaceOnUse" gradientTransform="translate(784.433 393.728) scale(282.932 279.16)">
<stop stop-color="#BF1E0C"/>
<stop offset="1" stop-color="#350100"/>
</radialGradient>
</defs>
</svg>
