<svg width="22" height="22" viewBox="0 0 22 22" fill="none" xmlns="http://www.w3.org/2000/svg">
<path fill-rule="evenodd" clip-rule="evenodd" d="M3.4375 8.42114C3.8172 8.42114 4.125 8.72895 4.125 9.10864V19.2493H7.5625V14.093C7.5625 13.6372 7.74358 13.2 8.06591 12.8777C8.38824 12.5554 8.82541 12.3743 9.28125 12.3743H12.7188C13.1746 12.3743 13.6118 12.5554 13.9341 12.8777C14.2564 13.2 14.4375 13.6372 14.4375 14.093V19.2493H17.875V9.10864C17.875 8.72895 18.1828 8.42114 18.5625 8.42114C18.9422 8.42114 19.25 8.72895 19.25 9.10864V19.2493C19.25 19.6139 19.1051 19.9637 18.8473 20.2215C18.5894 20.4794 18.2397 20.6243 17.875 20.6243H13.75C13.3703 20.6243 13.0625 20.3165 13.0625 19.9368V14.093C13.0625 14.0019 13.0263 13.9144 12.9618 13.85C12.8974 13.7855 12.8099 13.7493 12.7188 13.7493H9.28125C9.19008 13.7493 9.10265 13.7855 9.03818 13.85C8.97372 13.9144 8.9375 14.0018 8.9375 14.093V19.9368C8.9375 20.3165 8.6297 20.6243 8.25 20.6243H4.125C3.76033 20.6243 3.41059 20.4794 3.15273 20.2215C2.89487 19.9637 2.75 19.6139 2.75 19.2493V9.10864C2.75 8.72895 3.0578 8.42114 3.4375 8.42114Z" fill="currentColor"/>
<path fill-rule="evenodd" clip-rule="evenodd" d="M11.9527 1.74595L14.4375 4.12453V2.74925C14.4375 2.36955 14.7453 2.06175 15.125 2.06175H17.1875C17.5672 2.06175 17.875 2.36955 17.875 2.74925V7.41509L21.1004 10.5026C21.3747 10.7652 21.3842 11.2004 21.1216 11.4747C20.8591 11.7489 20.4239 11.7584 20.1496 11.4959L11.0138 2.7506C11.0096 2.75023 11.005 2.75001 11.0002 2.75C10.9952 2.74999 10.9905 2.75021 10.9862 2.75059L1.85041 11.4959C1.57612 11.7584 1.14092 11.7489 0.878366 11.4747C0.615807 11.2004 0.625312 10.7652 0.899596 10.5026L10.0479 1.74538C10.3283 1.46106 10.7105 1.37448 11.0027 1.375C11.2936 1.37552 11.6745 1.46282 11.9527 1.74595ZM16.5 6.09887V3.43675H15.8125V5.44076L16.5 6.09887Z" fill="currentColor"/>
</svg>
