<svg width="22" height="22" viewBox="0 0 22 22" fill="none" xmlns="http://www.w3.org/2000/svg">
<path fill-rule="evenodd" clip-rule="evenodd" d="M5.88059 1.68082C6.02473 1.79402 6.18661 1.94632 6.37285 2.13027C6.77186 2.52298 7.23477 3.15217 7.63199 3.75619C8.03365 4.36698 8.40584 5.00996 8.61445 5.45749L8.61459 5.45778L8.61472 5.45806C8.73297 5.71234 8.83954 5.94277 8.91445 6.14472C8.99053 6.34981 9.05375 6.5754 9.05416 6.82157C9.05501 7.33687 8.77532 7.73458 8.50591 8.1014C8.4285 8.20678 8.36274 8.29313 8.30606 8.36756C8.18388 8.52799 8.10379 8.63316 8.03967 8.7548C7.97712 8.87345 7.95887 8.95911 7.98848 9.09701C8.03116 9.29586 8.21674 9.73113 8.5771 10.3005C8.9256 10.8512 9.40276 11.4724 9.97286 12.0407C10.5428 12.6088 11.1541 13.0734 11.6938 13.4096C12.2499 13.756 12.6782 13.9338 12.8828 13.9774C13.0251 14.0078 13.114 13.9888 13.2329 13.9269C13.3583 13.8616 13.4699 13.7764 13.6434 13.644C13.7116 13.5919 13.7894 13.5326 13.8813 13.4642L13.8814 13.4641L13.8883 13.459C14.2564 13.1855 14.6654 12.8817 15.1837 12.8822C15.4398 12.8825 15.6697 12.9548 15.8721 13.0374C16.0655 13.1164 16.2877 13.2283 16.5314 13.351L16.5518 13.3613C16.9789 13.5767 17.614 13.9416 18.2288 14.3393C18.8328 14.7301 19.4701 15.1862 19.8669 15.586L19.8675 15.5866C20.0519 15.7729 20.2046 15.9348 20.3181 16.0789C20.4279 16.2184 20.5485 16.3988 20.5994 16.6232C20.6566 16.876 20.6047 17.0863 20.5515 17.2322C20.5275 17.298 20.4992 17.3611 20.4788 17.4063C20.4757 17.4133 20.4726 17.4202 20.4696 17.4269C20.4507 17.4688 20.4342 17.5053 20.4167 17.5472L20.4163 17.5482L20.4159 17.5492C20.2363 17.9751 20.0178 18.3835 19.7633 18.7693L19.7625 18.7704L19.7617 18.7716C19.2643 19.5189 18.7964 20.0071 18.069 20.3459C17.6911 20.5219 17.151 20.6997 16.3118 20.5951C15.5045 20.4944 14.4543 20.137 13.0209 19.3342L13.0205 19.334C10.7268 18.0476 9.13526 16.9386 7.0822 14.8913C5.03516 12.8499 4.029 11.5176 2.61952 8.9571C1.20057 6.37937 1.2026 4.78976 1.60782 3.92386C1.94805 3.19683 2.44119 2.73106 3.18596 2.23625L3.18743 2.23528L3.1889 2.23431C3.5751 1.98057 3.98373 1.76273 4.40966 1.58352L4.41107 1.58293L4.41248 1.58234C4.45463 1.56483 4.4915 1.5483 4.53365 1.5294C4.54026 1.52644 4.547 1.52342 4.55391 1.52033C4.59921 1.50006 4.66237 1.47188 4.72809 1.448C4.87377 1.39509 5.08367 1.3434 5.336 1.4003C5.56034 1.45088 5.74082 1.57105 5.88059 1.68082ZM4.94162 2.85145C4.59407 2.99777 4.2606 3.17553 3.94538 3.38251C3.3162 3.8007 3.04649 4.09362 2.8532 4.50666C2.72474 4.78115 2.48701 5.86505 3.82408 8.29404C5.17061 10.7402 6.09804 11.968 8.05311 13.9176C10.0021 15.8611 11.4879 16.8979 13.6928 18.1346C15.0421 18.8903 15.9168 19.1602 16.4819 19.2307C17.0149 19.2971 17.2945 19.1898 17.4885 19.0995C17.9047 18.9056 18.1989 18.6377 18.6164 18.0107C18.8239 17.6961 19.0021 17.363 19.1486 17.0157C19.1683 16.9685 19.1877 16.9248 19.2041 16.8883C19.14 16.8122 19.0418 16.707 18.8907 16.5544C18.6051 16.2667 18.0751 15.8776 17.4819 15.4938C16.8995 15.117 16.3076 14.7782 15.9329 14.5892C15.6624 14.4529 15.4892 14.3663 15.3525 14.3104C15.2194 14.2561 15.1808 14.2572 15.1823 14.2572C15.1947 14.2572 15.1522 14.2329 14.7014 14.5679C14.6553 14.6021 14.6056 14.6403 14.5529 14.6807C14.352 14.8347 14.1088 15.0211 13.8678 15.1466C13.5077 15.334 13.0943 15.4284 12.596 15.3222C12.1599 15.2292 11.5717 14.9534 10.9668 14.5767C10.3455 14.1897 9.65118 13.6615 9.00214 13.0145C8.35322 12.3676 7.8133 11.6649 7.41522 11.0358C7.029 10.4256 6.73849 9.82528 6.6441 9.38561C6.53664 8.885 6.63462 8.47158 6.82333 8.1136C6.94494 7.88291 7.12673 7.64455 7.27635 7.44838C7.32037 7.39066 7.36161 7.33659 7.39771 7.28744C7.68672 6.89392 7.67994 6.8312 7.6792 6.82436C7.67918 6.82413 7.67916 6.82396 7.67916 6.82385C7.67914 6.8106 7.67608 6.75984 7.62529 6.62293C7.57335 6.4829 7.49249 6.3057 7.368 6.03799C7.198 5.67338 6.86475 5.09199 6.48314 4.51169C6.09711 3.92467 5.69895 3.39615 5.408 3.10992L5.40751 3.10943L5.40702 3.10894C5.2535 2.9573 5.14791 2.85903 5.07169 2.79505C5.03465 2.81161 4.99001 2.83132 4.94162 2.85145Z" fill="currentColor"/>
</svg>
