<svg width="48" height="48" viewBox="0 0 48 48" fill="none" xmlns="http://www.w3.org/2000/svg">
<path d="M37.4578 46.481C36.1237 46.481 34.8703 45.9616 33.9262 45.0185C33.9234 45.0157 33.9196 45.012 33.9168 45.0091L25.4793 36.4263C24.6468 35.5807 24.1875 34.4604 24.1865 33.2726V32.7532C24.1865 32.5535 24.1471 32.3585 24.0703 32.1748C23.9962 31.9966 23.8893 31.8373 23.7543 31.7004L22.6865 30.7141C22.5028 30.5445 22.2768 30.4226 22.0331 30.3616C21.7893 30.3007 21.5325 30.3026 21.2906 30.3654C20.2706 30.6316 19.1943 30.626 18.1781 30.3504C17.1618 30.0748 16.2309 29.5357 15.4856 28.7913L7.47652 20.7813C4.18402 17.4898 2.14495 13.0329 2.15433 9.15165C2.15995 6.80227 2.9137 4.81665 4.33402 3.40946C4.92089 2.82821 5.86683 2.83102 6.44995 3.41415L40.9903 37.9554C41.9334 38.8985 42.4528 40.1529 42.4528 41.487C42.4528 42.821 41.9334 44.0754 40.9903 45.0185C40.0462 45.9616 38.7918 46.481 37.4587 46.481H37.4578ZM36.0515 42.9007C36.4284 43.2748 36.9271 43.481 37.4578 43.481C37.9884 43.481 38.4918 43.2738 38.8687 42.897C39.2446 42.521 39.4528 42.0195 39.4528 41.487C39.4528 40.9545 39.2456 40.4529 38.8687 40.076L5.59589 6.80415C5.24902 7.61134 5.15527 8.4729 5.15339 9.15915C5.14589 12.2238 6.89058 15.9541 9.59714 18.6607L17.6062 26.6707C17.9812 27.0457 18.4509 27.3176 18.9628 27.4563C19.4756 27.5951 20.0175 27.5979 20.5312 27.4638C21.2578 27.2735 22.0293 27.2688 22.7596 27.4516C23.49 27.6335 24.1687 28.0001 24.7218 28.5101L25.8112 29.516C25.8234 29.5273 25.8356 29.5385 25.8468 29.5507C26.2734 29.9716 26.6062 30.4648 26.8378 31.0179C27.0684 31.571 27.1856 32.1551 27.1856 32.7541V33.2726C27.1856 33.6673 27.3393 34.0404 27.6168 34.3226L36.0496 42.9007H36.0515Z" fill="currentColor"/>
<path d="M6.74906 46.4988C5.34656 46.4988 4.02844 45.9532 3.0375 44.9613C2.04562 43.9694 1.5 42.6513 1.5 41.2498C1.5 39.8482 2.04562 38.5291 3.0375 37.5382L10.9425 29.6857C11.5303 29.1016 12.48 29.1054 13.0641 29.6932C13.6481 30.281 13.6444 31.2307 13.0566 31.8148L5.15531 39.6635C4.73438 40.0844 4.5 40.6498 4.5 41.2507C4.5 41.8516 4.73437 42.416 5.15906 42.8416C5.58375 43.2663 6.14812 43.4998 6.74906 43.4998C7.35 43.4998 7.91531 43.2654 8.34 42.8407L17.6859 33.4423C18.27 32.8545 19.2197 32.8526 19.8075 33.4366C20.3953 34.0207 20.3972 34.9704 19.8131 35.5582L10.4644 44.9594C9.46969 45.9541 8.15156 46.4998 6.75 46.4998L6.74906 46.4988ZM29.9991 22.4998C29.6156 22.4998 29.2312 22.3535 28.9387 22.0601C28.3528 21.4741 28.3528 20.5245 28.9387 19.9385L29.9991 18.8782C30.2794 18.5979 30.6066 18.3795 30.9722 18.2276C31.3387 18.0757 31.725 17.9988 32.1206 17.9988H33.5137C34.1081 17.9988 34.6875 17.8835 35.2359 17.6566C35.7844 17.4298 36.2756 17.1007 36.6956 16.6807L43.9378 9.43851C44.5237 8.85258 45.4734 8.85258 46.0594 9.43851C46.6453 10.0245 46.6453 10.9741 46.0594 11.5601L38.8172 18.8023C38.1169 19.5026 37.2984 20.0491 36.3834 20.4288C35.4684 20.8076 34.5028 20.9998 33.5128 20.9998H32.1197L31.0584 22.0601C30.7659 22.3526 30.3816 22.4998 29.9981 22.4998H29.9991ZM26.9991 19.4998C26.6156 19.4998 26.2312 19.3535 25.9387 19.0601C25.3528 18.4741 25.3528 17.5245 25.9387 16.9385L26.9991 15.8782V14.4841C26.9991 13.4941 27.1912 12.5285 27.57 11.6135C27.9487 10.6985 28.4962 9.88008 29.1966 9.17976L36.4387 1.93945C37.0247 1.35352 37.9744 1.35352 38.5603 1.93945C39.1462 2.52539 39.1462 3.47508 38.5603 4.06102L31.3181 11.3032C30.8981 11.7232 30.57 12.2145 30.3422 12.7629C30.1144 13.3123 29.9991 13.8916 29.9991 14.4851V15.8782C29.9991 16.2738 29.9222 16.6601 29.7712 17.0257C29.6184 17.3932 29.4 17.7204 29.1197 18.0007L28.0603 19.0601C27.7678 19.3526 27.3834 19.4998 27 19.4998H26.9991ZM33.7491 15.7498C33.3656 15.7498 32.9812 15.6035 32.6887 15.3101C32.1028 14.7241 32.1028 13.7745 32.6887 13.1885L40.1887 5.68852C40.7747 5.10258 41.7244 5.10258 42.3103 5.68852C42.8962 6.27445 42.8962 7.22414 42.3103 7.81008L34.8103 15.3101C34.5178 15.6026 34.1334 15.7498 33.75 15.7498H33.7491Z" fill="currentColor"/>
</svg>